<?xml version="1.0" standalone="no"?>
<!DOCTYPE svg PUBLIC "-//W3C//DTD SVG 20010904//EN"
 "http://www.w3.org/TR/2001/REC-SVG-20010904/DTD/svg10.dtd">

<svg xmlns="http://www.w3.org/2000/svg" xmlns:xlink="http://www.w3.org/1999/xlink" id="svg" version="1.1" width="400" height="400" style="display: block;"><g id="svgg"><path id="path1" d="M36.796 208.914 C 36.796 260.080,36.849 281.011,36.914 255.429 C 36.980 229.846,36.980 187.983,36.914 162.400 C 36.849 136.817,36.796 157.749,36.796 208.914 " stroke="none" fill="#72460e" fill-rule="evenodd"/><path id="path2" d="M361.824 208.686 C 361.824 259.726,361.878 280.538,361.943 254.935 C 362.008 229.332,362.008 187.572,361.943 162.135 C 361.878 136.698,361.824 157.646,361.824 208.686 " stroke="none" fill="#bd721f" fill-rule="evenodd"/><path id="path3" d="M118.078 69.645 L 37.069 115.886 37.049 208.716 L 37.029 301.546 38.971 302.625 C 41.768 304.178,135.784 357.802,170.165 377.454 L 199.301 394.107 280.450 347.799 L 361.600 301.492 361.583 208.689 L 361.567 115.886 280.634 69.714 C 236.121 44.320,199.563 23.512,199.394 23.474 C 199.224 23.436,162.632 44.213,118.078 69.645 M274.835 123.924 C 300.555 129.187,305.077 163.945,281.512 175.253 C 256.401 187.302,230.729 162.115,243.368 137.829 C 248.728 127.530,262.567 121.414,274.835 123.924 M199.522 145.257 C 203.743 156.006,219.124 195.349,233.703 232.686 C 248.282 270.023,260.315 300.831,260.442 301.148 C 260.626 301.608,257.067 301.701,242.922 301.605 L 225.170 301.486 213.170 269.943 C 206.570 252.594,199.570 233.517,197.614 227.548 C 195.658 221.579,193.954 216.700,193.829 216.705 C 193.703 216.709,192.160 221.162,190.400 226.600 C 188.640 232.038,181.738 251.112,175.062 268.986 L 162.925 301.486 145.462 301.605 C 135.771 301.672,128.000 301.548,128.000 301.327 C 128.000 301.109,138.903 272.586,152.229 237.943 C 165.554 203.300,176.457 174.710,176.457 174.410 C 176.457 174.109,172.343 163.120,167.314 149.988 C 162.286 136.857,158.171 126.024,158.171 125.914 C 158.171 125.804,165.749 125.714,175.010 125.714 L 191.849 125.714 199.522 145.257 " stroke="none" fill="#fd9a2b" fill-rule="evenodd"/><path id="path4" d="" stroke="none" fill="#2f470e" fill-rule="evenodd"/></g></svg>
