<?xml version="1.0" standalone="no"?>
<!DOCTYPE svg PUBLIC "-//W3C//DTD SVG 20010904//EN"
 "http://www.w3.org/TR/2001/REC-SVG-20010904/DTD/svg10.dtd">
<svg version="1.0" xmlns="http://www.w3.org/2000/svg"
 width="500.000000pt" height="500.000000pt" viewBox="0 0 500.000000 500.000000"
 preserveAspectRatio="xMidYMid meet">
<metadata>
Created by potrace 1.11, written by Peter Selinger 2001-2013
</metadata>
<g transform="translate(0.000000,500.000000) scale(0.100000,-0.100000)"
fill="#000000" stroke="none">
<path d="M0 2500 l0 -2500 2500 0 2500 0 0 2500 0 2500 -2500 0 -2500 0 0
-2500z m2450 1255 c52 -3 121 -10 152 -15 32 -6 69 -12 83 -14 25 -5 32 -6
110 -28 194 -52 343 -214 509 -553 83 -170 126 -261 126 -269 0 -2 13 -33 29
-68 16 -35 109 -243 206 -463 396 -894 382 -864 468 -1050 76 -165 236 -476
310 -603 l66 -112 -327 2 -327 3 -145 290 c-80 160 -210 436 -289 615 -218
491 -242 544 -251 554 -4 4 -11 -3 -15 -15 -4 -13 -21 -53 -38 -89 -29 -64
-266 -584 -314 -690 -14 -30 -31 -68 -39 -85 -7 -16 -70 -154 -139 -305 l-125
-275 -240 -3 c-132 -1 -240 1 -240 6 0 5 16 41 35 81 19 39 35 73 35 76 0 2
16 39 36 82 20 43 52 111 70 151 19 41 34 75 34 77 0 1 23 52 51 111 27 60 69
150 91 199 23 50 61 132 85 183 23 51 43 95 43 97 0 2 21 47 46 102 25 54 66
143 91 198 25 55 55 120 66 145 12 25 22 47 22 50 1 3 13 30 27 60 52 112 91
196 115 250 14 30 34 75 45 99 l20 43 -68 152 c-167 377 -225 462 -339 505
-71 27 -102 31 -245 38 -69 3 -126 7 -128 8 -3 2 -4 299 -3 431 l1 41 103 -3
c56 -1 145 -5 197 -9z"/>
</g>
</svg>
