<?xml version="1.0" encoding="UTF-8" standalone="no"?>
<svg width="754px" height="625px" viewBox="0 0 754 625" version="1.1" xmlns="http://www.w3.org/2000/svg" xmlns:xlink="http://www.w3.org/1999/xlink" xmlns:sketch="http://www.bohemiancoding.com/sketch/ns">
    <!-- Generator: Sketch 3.2.2 (9983) - http://www.bohemiancoding.com/sketch -->
    <title>Page-1</title>
    <desc>Created with Sketch.</desc>
    <defs></defs>
    <g id="Page-1" stroke="none" stroke-width="1" fill="none" fill-rule="evenodd" sketch:type="MSPage">
        <g sketch:type="MSLayerGroup" id="lambda-vector7">
            <g sketch:type="MSShapeGroup">
                <g id="Page-1">
                    <g id="lambda-vector7">
                        <g id="Page-1_1_">
                            <g id="lambda-vector_1_">
                                <g id="Page-1">
                                    <g id="lambda-vector">
                                        <path d="M548.1,532 C606.1,479 628.1,399 648.1,358 C677.8,297.1 707.1,228 731.1,170 C742.4,142.6 768.1,99 741.1,53 C714.1,7 673.5,2.8 646.1,1.8 C594.1,-0.2 403.1,1.8 304.1,1.8 C155.1,1.8 6.1,140 1.1,302 C-3.9,464 131.1,624 324.1,624 C402.1,624 490.1,585 548.1,532 L548.1,532 Z" id="Oval-2" stroke="#BF5D23" fill="#BF5D23"></path>
                                        <path d="M642.8,97.5 L667.3,157.5 L702,147 L696.7,129.2 L680.9,134.7 L643,40.3 L610.5,40.3 L610.5,58.3 L629.5,57.8 L635,73.3 L586,153 L607.5,153 L642.8,97.5 Z" id="Path" stroke="#6C6C6C" fill="#6C6C6C"></path>
                                        <path d="M319,575 C466.5,575 586,461.3 586,321 C586,180.7 466.5,67 319,67 C171.5,67 52,180.7 52,321 C52,461.3 171.5,575 319,575 L319,575 L319,575 Z" id="Oval-1" stroke="#6C6C6C" fill="#6C6C6C"></path>
                                    </g>
                                </g>
                                <path d="M237.154297,312.921875 C220.904216,304.289019 209.055376,294.640678 201.607422,283.976562 C191.451121,269.419198 186.373047,252.661553 186.373047,233.703125 C186.373047,202.557136 201.014828,177.08213 230.298828,157.277344 C253.150505,142.042893 283.365046,134.425781 320.943359,134.425781 C370.709233,134.425781 407.482954,143.904853 431.265625,162.863281 C455.048296,181.821709 466.939453,205.688658 466.939453,234.464844 C466.939453,251.22274 462.199917,266.880136 452.720703,281.4375 C445.611293,292.270887 434.439529,302.765574 419.205078,312.921875 C439.348408,322.570361 454.371044,335.350181 464.273438,351.261719 C474.175831,367.173257 479.126953,384.777247 479.126953,404.074219 C479.126953,422.694104 474.852907,440.086508 466.304688,456.251953 C457.756468,472.417399 447.261781,484.900998 434.820312,493.703125 C422.378844,502.505252 406.890718,508.979797 388.355469,513.126953 C369.82022,517.274109 350.058048,519.347656 329.068359,519.347656 C289.628058,519.347656 259.498151,514.692755 238.677734,505.382812 C217.857318,496.07287 202.030653,482.36207 191.197266,464.25 C180.363878,446.13793 174.947266,425.910268 174.947266,403.566406 C174.947266,381.73036 180.02534,363.237706 190.181641,348.087891 C200.337941,332.938075 215.995337,321.216187 237.154297,312.921875 L237.154297,312.921875 Z M284,237.796875 C284,250.661523 288.020142,261.029258 296.060547,268.900391 C304.100952,276.771524 314.807225,280.707031 328.179688,280.707031 C340.028705,280.707031 349.761681,276.813841 357.378906,269.027344 C364.996132,261.240846 368.804688,251.169333 368.804688,238.8125 C368.804688,225.947852 364.826863,215.495483 356.871094,207.455078 C348.915325,199.414673 338.759176,195.394531 326.402344,195.394531 C313.876239,195.394531 303.677774,199.330039 295.806641,207.201172 C287.935508,215.072305 284,225.270771 284,237.796875 L284,237.796875 Z M278.414062,398.011719 C278.414062,414.431072 283.407502,427.845651 293.394531,438.255859 C303.38156,448.666068 314.807227,453.871094 327.671875,453.871094 C340.028708,453.871094 351.115836,448.581433 360.933594,438.001953 C370.751351,427.422473 375.660156,414.007894 375.660156,397.757812 C375.660156,381.33846 370.709034,367.881563 360.806641,357.386719 C350.904247,346.891875 339.436263,341.644531 326.402344,341.644531 C313.537696,341.644531 302.323616,346.722605 292.759766,356.878906 C283.195916,367.035207 278.414062,380.746007 278.414062,398.011719 L278.414062,398.011719 Z" id="8" fill="#FFFFFF"></path>
                            </g>
                        </g>
                    </g>
                </g>
            </g>
        </g>
    </g>
</svg>