<?xml version="1.0" encoding="utf-8"?>
<!-- Generator: Adobe Illustrator 19.0.0, SVG Export Plug-In . SVG Version: 6.00 Build 0)  -->
<svg version="1.1" id="Слой_1" xmlns:sketch="http://www.bohemiancoding.com/sketch/ns"
	 xmlns="http://www.w3.org/2000/svg" xmlns:xlink="http://www.w3.org/1999/xlink" x="0px" y="0px" width="384px" height="512px"
	 viewBox="-287 25 384 512" enable-background="new -287 25 384 512" xml:space="preserve">
<title>1467221450_72_Pin_alt</title>
<desc>Created with Sketch.</desc>
<g id="Page-1" sketch:type="MSPage">
	<g id="_x31_467221450_x5F_72_x5F_Pin_x5F_alt" sketch:type="MSLayerGroup">
		<path id="Shape" sketch:type="MSShapeGroup" fill="#016FB9" d="M-95,25c-106,0-192,86-192,192S-95,537-95,537S97,323,97,217
			S11,25-95,25L-95,25z M-95,345c-70.7,0-128-57.3-128-128S-165.7,89-95,89S33,146.3,33,217S-24.3,345-95,345L-95,345z M-95,153
			c-35.3,0-64,28.7-64,64s28.7,64,64,64c35.3,0,64-28.7,64-64S-59.7,153-95,153L-95,153z"/>
	</g>
</g>
</svg>
