<?xml version="1.0" encoding="utf-8"?>
<!-- Generator: Adobe Illustrator 22.0.1, SVG Export Plug-In . SVG Version: 6.00 Build 0)  -->
<svg version="1.1" id="Layer_1" xmlns="http://www.w3.org/2000/svg" xmlns:xlink="http://www.w3.org/1999/xlink" x="0px" y="0px"
	 viewBox="0 0 458.1 75.6" style="enable-background:new 0 0 458.1 75.6;" xml:space="preserve">
<style type="text/css">
	.Arched_x0020_Green{fill:url(#SVGID_1_);stroke:#FFFFFF;stroke-width:0.25;stroke-miterlimit:1;}
	.st0{fill:#D8D9D4;}
	.st1{fill:#4DBA72;}
</style>
<linearGradient id="SVGID_1_" gradientUnits="userSpaceOnUse" x1="80.3877" y1="177.7549" x2="81.0948" y2="177.0478">
	<stop  offset="0" style="stop-color:#20AC4B"/>
	<stop  offset="0.9831" style="stop-color:#19361A"/>
</linearGradient>
<g>
	<path class="st0" d="M187,34.2c1.6,0,2.6,1,3,2.4l6.1,19.9l6.6-19.9c0.5-1.3,1.6-2.4,3-2.4h5.5c1.1,0,2.1,1,1.6,2.1l-11.2,31.4
		c-0.6,1.6-1.8,2.6-3.6,2.6h-3.7c-1.8,0-3.1-1-3.6-2.6l-6.1-19.4l-6.1,19.4c-0.5,1.6-1.8,2.6-3.6,2.6h-3.7c-1.8,0-3-1-3.6-2.6
		l-11.2-31.4c-0.4-1.1,0.5-2.1,1.6-2.1h5.5c1.3,0,2.5,1,3,2.4l6.6,19.9l6.1-19.9c0.4-1.3,1.4-2.4,3-2.4H187z"/>
	<path class="st0" d="M221.4,59.1c0.4,4.1,2.2,5.9,6.4,5.9c2.2,0,4.1-0.6,4.9-1.7c0.7-0.8,1.6-1.3,2.9-1.3h3.8
		c0.9,0,1.5,0.7,1.5,1.5c0,5.4-5.5,7.2-13.8,7.2c-9.2,0-14.7-4.9-14.7-14.3c0-9.3,5.6-14.3,14.7-14.3c9.2,0,14.7,4.9,14.7,14v1.4
		c0,0.9-0.7,1.5-1.5,1.5H221.4z M221.3,53.8H233c-0.2-3.9-2-5.9-5.8-5.9C223.5,47.9,221.5,49.9,221.3,53.8z"/>
	<path class="st0" d="M246.5,35.7c0-0.9,0.7-1.5,1.5-1.5h5.6c0.9,0,1.5,0.7,1.5,1.5v7.7c2.1-0.7,4.2-1.3,7.3-1.3
		c8,0,13.5,4.8,13.5,14.3c0,9.4-5.4,14.3-16,14.3c-4.9,0-10.8-1.3-13.5-2.8V35.7z M255.2,64.1c1.2,0.3,3.2,0.6,5.3,0.6
		c4.8,0,6.5-2.5,6.5-8.2c0-5.7-1.7-8.2-6.3-8.2c-1.3,0-3.4,0.4-5.5,1V64.1z"/>
	<path class="st0" d="M280.6,36.5c0-1.8,1.1-2.9,2.9-2.9h3.1c1.8,0,2.9,1.1,2.9,2.9v0.9c0,1.8-1.1,2.9-2.9,2.9h-3.1
		c-1.8,0-2.9-1.1-2.9-2.9V36.5z M282.3,70.2c-0.9,0-1.5-0.7-1.5-1.5V44.8c0-0.9,0.7-1.5,1.5-1.5h5.6c0.9,0,1.5,0.7,1.5,1.5v23.9
		c0,0.9-0.7,1.5-1.5,1.5H282.3z"/>
	<path class="st0" d="M298.6,70.2c-1.3,0-2.4-1.1-2.4-2.4V36.5c0-1.3,1-2.4,2.3-2.4h7.4c1.2,0,2.7,1.2,3.5,2.4l15.2,23.4V36.5
		c0-1.3,1.1-2.3,2.4-2.3h4.3c1.3,0,2.4,1,2.4,2.4v31.3c0,1.3-1,2.4-2.4,2.4H323c-1.3,0-2.8-1.1-3.7-2.4l-13.9-21.6v21.6
		c0,1.3-1.1,2.4-2.4,2.4H298.6z"/>
	<path class="st0" d="M347.7,59.1c0.4,4.1,2.2,5.9,6.4,5.9c2.2,0,4.1-0.6,4.9-1.7c0.7-0.8,1.6-1.3,2.9-1.3h3.8
		c0.9,0,1.5,0.7,1.5,1.5c0,5.4-5.5,7.2-13.8,7.2c-9.2,0-14.7-4.9-14.7-14.3c0-9.3,5.6-14.3,14.7-14.3c9.2,0,14.7,4.9,14.7,14v1.4
		c0,0.9-0.7,1.5-1.5,1.5H347.7z M347.6,53.8h11.7c-0.2-3.9-2-5.9-5.8-5.9C349.8,47.9,347.8,49.9,347.6,53.8z"/>
	<path class="st0" d="M394.3,47.5c0,0.9-0.7,1.5-1.5,1.5h-0.8c-1.2,0-2.5-0.2-3.9-0.2c-2.6,0-4.6,1.5-6.5,3.7v16.1
		c0,0.9-0.7,1.5-1.5,1.5h-5.6c-0.9,0-1.5-0.7-1.5-1.5V44.2c0-0.9,0.7-1.5,1.5-1.5h5.6c0.9,0,1.5,0.7,1.5,1.5v1.6
		c2.9-2.1,5.5-3.7,11.2-3.7c0.9,0,1.5,0.7,1.5,1.5V47.5z"/>
	<path class="st0" d="M396.3,56.5c0-9.5,5.5-14.3,13.5-14.3c3.1,0,5.2,0.6,7.3,1.3v-7.7c0-0.9,0.7-1.5,1.5-1.5h5.6
		c0.9,0,1.5,0.7,1.5,1.5v33c0,0.9-0.7,1.5-1.5,1.5h-4.8c-0.9,0-1.5-0.7-1.5-1.5v-0.8c-2.3,1.7-5.2,2.8-8.8,2.8
		C401.7,70.7,396.3,65.9,396.3,56.5z M417.1,62.4V49.3c-2.1-0.7-4.2-1-5.5-1c-4.6,0-6.3,2.5-6.3,8.2c0,5.7,1.7,8.2,5.8,8.2
		C413,64.7,415.3,63.5,417.1,62.4z"/>
	<path class="st0" d="M444.3,70.7c-8.4,0-13.8-1.9-13.8-7.2c0-0.9,0.7-1.5,1.5-1.5h3.8c1.3,0,2.2,0.5,2.9,1.3c0.9,1.1,2.8,1.7,5,1.7
		c4.3,0,5.8-1,5.8-2.4c0-4.3-19-1.9-19-12.3c0-5.8,5.8-8.1,13.1-8.1c8.5,0,13.8,1.9,13.8,7.2c0,0.9-0.7,1.5-1.5,1.5H452
		c-1.3,0-2.2-0.5-2.9-1.3c-0.9-1.1-2.8-1.7-5-1.7c-3.6,0-5,1-5,2.4c0,4.3,19,1.8,19,12.3C458.1,68.4,452.3,70.7,444.3,70.7z"/>
</g>
<g>
	<path class="st0" d="M36.3,70.2c-13.7,0-24.8-11.1-24.8-24.8c0-3.9,0.9-7.6,2.6-11.1c4.2-8.4,12.7-13.6,22.1-13.6
		c9.3,0,17.7,5.1,22,13.4c1.8,3.5,2.8,7.4,2.8,11.4C61.1,59.1,50,70.2,36.3,70.2L36.3,70.2z M36.3,24.8c-7.8,0-14.9,4.4-18.4,11.4
		c-1.5,2.9-2.2,6-2.2,9.3c0,11.4,9.3,20.6,20.6,20.6c11.4,0,20.6-9.3,20.6-20.6c0-3.3-0.8-6.5-2.3-9.5C51.1,29,44,24.8,36.3,24.8
		L36.3,24.8z"/>
</g>
<g>
	<path class="st0" d="M102.1,70.2C82.7,70.2,67,54.4,67,35.1C67,15.7,82.7,0,102.1,0c19.3,0,35.1,15.7,35.1,35.1
		C137.2,54.4,121.4,70.2,102.1,70.2L102.1,70.2z M102.1,4.1C85,4.1,71.1,18,71.1,35.1C71.1,52.1,85,66,102.1,66
		c17.1,0,30.9-13.9,30.9-30.9C133,18,119.1,4.1,102.1,4.1L102.1,4.1z"/>
</g>
<g>
	<path class="st1" d="M102.1,75.6c-15.8,0-29.8-9.6-36.4-23.2c-3.2,13.3-15.1,23.2-29.3,23.2C19.7,75.6,6.2,62,6.2,45.4
		c0-1.9,0-3.8-0.1-5.6C6,38.1,6,36.6,6,35.2v-0.3c0-0.3,0-0.7,0-1.1c-0.3-0.1-0.8-0.1-1.5-0.1H0V18.8h4.4c5.3,0,9.4,1.5,12.4,4.4
		c4.1,4.1,4.1,9.5,4.1,11.8v0.3c0,1.2,0,2.7,0.1,4.2c0,1.8,0.1,3.9,0.1,6c0,8.4,6.8,15.2,15.2,15.2c8.4,0,15.2-6.8,15.2-15.2
		c0-1.9,0-3,0-4c0-1.1,0-2.2,0-4c0-2.8,0-11.5,8.8-14.2c4-1.2,8.1-0.6,11.3,1.7c3.2,2.3,5,6.1,5,10.2c0,13.6,11.9,25.6,25.6,25.6
		c14.1,0,25.5-11.4,25.6-25.5c0-1.8,0.1-9.2,5.1-14.3c2.9-3,6.7-4.5,11-4.5h4.7v14.9h-4.7c-0.2,0-0.3,0-0.4,0
		c-0.4,0.5-0.8,2.3-0.8,3.6l0,0.2l0,0C142.6,57.4,124.4,75.6,102.1,75.6L102.1,75.6z"/>
</g>
<g>
	<path class="st0" d="M116.9,50.5c0,2.9-2.4,5.3-5.3,5.3c-2.9,0-5.3-2.4-5.3-5.3c0-2.9,2.4-5.3,5.3-5.3
		C114.5,45.1,116.9,47.5,116.9,50.5z"/>
</g>
<g>
	<path class="st0" d="M47.5,51.1c0,2.9-2.4,5.3-5.3,5.3c-2.9,0-5.3-2.4-5.3-5.3c0-2.9,2.4-5.3,5.3-5.3
		C45.1,45.8,47.5,48.2,47.5,51.1z"/>
</g>
</svg>
