<?xml version="1.0" encoding="utf-8"?>
<!-- Generator: Adobe Illustrator 19.0.0, SVG Export Plug-In . SVG Version: 6.00 Build 0)  -->
<svg version="1.1" id="Layer_1" xmlns="http://www.w3.org/2000/svg" xmlns:xlink="http://www.w3.org/1999/xlink" x="0px" y="0px"
	 width="714.6px" height="227.3px" viewBox="0 0 714.6 227.3" enable-background="new 0 0 714.6 227.3" xml:space="preserve">
<path fill-rule="evenodd" clip-rule="evenodd" fill="#D8D9D4" d="M206.9,14.1C189.8,25.9,181,45.6,181,72.9v57.9
	c0,4.6,1.6,8.7,4.5,11.9c2.9,3.3,6.7,5,10.8,5c4.1,0,7.8-1.8,10.7-5c2.9-3.3,4.5-7.4,4.5-12V72.9c0-8.3,0.9-14.7,2.6-19.2
	c5-12.7,21.8-19.2,49.7-19.2c28.6,0,45.4,6.8,50.1,20.1c1.6,4.4,2.4,10.5,2.4,18.3v3.2h-77c0,0-0.9,0-0.9,0h-0.1
	c-3.8,0.3-7.2,2-9.9,5c-2.9,3.3-4.5,7.4-4.5,12.1c0,4.5,1.6,8.7,4.5,11.9c2.6,2.9,6,4.6,9.7,4.9c0.1,0,0.2,0.1,0.3,0.1h77.9v20.7
	c0,4.6,1.6,8.7,4.5,12c2.9,3.2,6.6,5,10.7,5c4.1,0,7.7-1.7,10.7-4.9c3-3.3,4.6-7.4,4.6-12V72.9c0-27.3-8.7-47.1-25.9-58.8
	c-13.1-9-32.3-13.5-57.1-13.5C239.1,0.5,220,5.1,206.9,14.1z"/>
<path fill-rule="evenodd" clip-rule="evenodd" fill="#D8D9D4" d="M141.5,93.8c-7.3,15.9-29.4,24-65.6,24H26.6V29.6h49.4
	c36.5,0,58.7,7.7,65.8,22.8c2.3,4.8,3.4,11.8,3.4,20.7C145.2,81.6,143.9,88.5,141.5,93.8z M138.8,11.8C124.1,4,102.9,0,75.9,0H15.3
	C11.2,0,7.4,1.7,4.4,5.1C1.6,8.4,0,12.6,0,17v113.2c0,4.6,1.6,8.7,4.4,11.9c3,3.3,6.7,5,10.9,5h60.6c27.3,0,48.6-4.1,63.2-12.1
	c21.7-11.9,32.6-32.8,32.6-62C171.7,44.1,160.6,23.5,138.8,11.8z"/>
<path fill-rule="evenodd" clip-rule="evenodd" fill="#D8D9D4" d="M510.8,1.2L510.8,1.2L510.8,1.2z M510.8,1.2l-0.1,0l-0.2,0
	L510.8,1.2z M506.3,0.4l-1.1,0.1H505l-1.2,0.1l-0.6,0.1L502.4,1l-0.2,0l-1.1,0.4l-0.5,0.1l-0.9,0.5l-0.4,0.2
	c-0.8,0.4-2.5,1.7-2.5,1.8L442,52.3L386.9,4.1c-2.9-2.5-6.1-3.7-9.5-3.7c-4.2,0-7.9,1.8-10.9,5.1c-2.9,3.4-4.4,7.5-4.4,11.9
	c0,5.3,2.1,10,5.8,13.3L417.2,74l-49.4,43.4c-3.7,3.2-5.8,7.9-5.8,13.3c0,4.6,1.6,8.8,4.5,12c2.9,3.2,6.6,4.9,10.8,4.9
	c3.6,0,6.8-1.1,9.4-3.4l22.9-20.1L442,95.7l54.8,48.4c1.9,1.7,4.1,2.7,6.6,3.2l2.3,0.2l0.3,0h0.2h0.4l0.3,0c3.3,0,6.4-1.2,8.9-3.4
	l55.1-48.5l54.8,48.4c2.7,2.3,5.9,3.5,9.5,3.5c4.1,0,7.8-1.7,10.7-4.9c2.9-3.2,4.5-7.4,4.5-12c0-5.3-2-10-5.6-13.3L595.2,74
	l49.4-43.3c3.7-3.4,5.7-7.9,5.7-13.2c0-4.5-1.5-8.5-4.3-11.8c-2.9-3.4-6.7-5.2-10.9-5.2c-3.5,0-6.7,1.3-9.6,3.8l-54.8,48.2l-55-48.2
	l-0.9-0.7l-0.3-0.2l-0.1-0.1l-1.2-0.8l-0.4-0.2l-1.3-0.7c-0.2-0.1-0.5-0.2-0.8-0.3l-1.3-0.4l-0.9-0.1l-1-0.1h-0.1l-0.8,0L506.3,0.4z
	"/>
<polygon fill="#FFF200" points="506.3,37.2 548.2,74 506.3,110.8 464.2,74 "/>
<text transform="matrix(1.0207 0 0 1 0 210.3037)" fill="#D8D9D4" font-family="'VAGRounded-Light'" font-size="56px" letter-spacing="12">GREAT IT PEOPLE </text>
</svg>
