<?xml version="1.0" encoding="utf-8"?>
<!-- Generator: Adobe Illustrator 19.0.0, SVG Export Plug-In . SVG Version: 6.00 Build 0)  -->
<svg version="1.1" id="Слой_1" xmlns:sketch="http://www.bohemiancoding.com/sketch/ns"
	 xmlns="http://www.w3.org/2000/svg" xmlns:xlink="http://www.w3.org/1999/xlink" x="0px" y="0px" width="754px" height="625px"
	 viewBox="-102 -32 754 625" style="enable-background:new -102 -32 754 625;" xml:space="preserve">
<style type="text/css">
	.st0{fill:url(#Oval-2_1_);stroke:#000000;stroke-opacity:1.449275e-002;}
	.st1{fill:url(#Path_1_);stroke:#000000;}
	.st2{stroke:#000000;}
	.st3{fill:url(#XMLID_2_);}
</style>
<title>lambda-vector</title>
<desc>Created with Sketch.</desc>
<g id="Page-1_1_" sketch:type="MSPage">
	<g id="lambda-vector_1_" sketch:type="MSLayerGroup">
		<g id="Page-1" sketch:type="MSShapeGroup">
			<g id="lambda-vector">
				
					<radialGradient id="Oval-2_1_" cx="-203.4082" cy="560.8754" r="0.8804" gradientTransform="matrix(752.0736 0 0 -623.1089 153219.9844 349565.9688)" gradientUnits="userSpaceOnUse">
					<stop  offset="0" style="stop-color:#FFA816"/>
					<stop  offset="0.8112" style="stop-color:#923E04"/>
					<stop  offset="1" style="stop-color:#984004"/>
				</radialGradient>
				<path id="Oval-2" class="st0" d="M222.1,592c78,0,166-39,224-92c58-53,80-133,100-174c29.7-60.9,59-130,83-188
					c11.3-27.4,37-71,10-117s-67.6-50.2-95-51.2c-52-2-243,0-342,0c-149,0-298,138.2-303,300.2S29.1,592,222.1,592L222.1,592z"/>
				
					<radialGradient id="Path_1_" cx="-202.6645" cy="561.1039" r="0.8804" gradientTransform="matrix(116 0 0 -117.25 24033 65819.5)" gradientUnits="userSpaceOnUse">
					<stop  offset="0" style="stop-color:#000000"/>
					<stop  offset="1" style="stop-color:#000000"/>
					<stop  offset="1" style="stop-color:#000000"/>
				</radialGradient>
				<path id="Path" class="st1" d="M471,122h21.5l35.3-55.5l24.5,60L587,116l-5.3-17.8l-15.8,5.5L528,9.3h-32.5v18l19-0.5l5.5,15.5
					L471,122L471,122z"/>
				<path id="Oval-1" class="st2" d="M217,543c147.5,0,267-113.7,267-254S364.5,35,217,35S-50,148.7-50,289S69.5,543,217,543z"/>
			</g>
		</g>
	</g>
</g>
<g id="XMLID_74_">
	<linearGradient id="XMLID_2_" gradientUnits="userSpaceOnUse" x1="65.6346" y1="395.6879" x2="408.4185" y2="197.7815">
		<stop  offset="0" style="stop-color:#9E4A06"/>
		<stop  offset="0.648" style="stop-color:#A04C06"/>
		<stop  offset="1" style="stop-color:#E08911"/>
	</linearGradient>
	<path id="XMLID_75_" class="st3" d="M372.7,342.4c0,46.6-15.3,84-46,111.9c-29.3,26-66.3,39-111.1,39c-43.9,0-80.3-13.3-109.2-39.8
		c-30-27.7-45-64.4-45-110.1c0-25.7,6.2-50.4,18.7-74.1c11-20.6,30.3-46.7,58-78.3l89.1-101.6h118.8L236.3,214
		c38.1,4.5,69.1,16.4,93.2,35.6C358.2,272.7,372.7,303.7,372.7,342.4z M273,350.1c0-14.2-5.5-26.3-16.5-36.3
		c-11-10.1-24-15.1-39-15.1c-15,0-28,5-39,15.1c-11,10.1-16.5,22.2-16.5,36.3c0,13.9,5.5,25.9,16.5,35.9c11,10.1,24,15.1,39,15.1
		c15,0,28-5,39-15.1C267.5,375.9,273,364,273,350.1z"/>
</g>
</svg>
