<?xml version="1.0" encoding="UTF-8" standalone="no"?>
<svg width="229px" height="271px" viewBox="0 0 229 271" version="1.1" xmlns="http://www.w3.org/2000/svg" xmlns:xlink="http://www.w3.org/1999/xlink" xmlns:sketch="http://www.bohemiancoding.com/sketch/ns">
    <!-- Generator: Sketch 3.2.2 (9983) - http://www.bohemiancoding.com/sketch -->
    <title>Polygon-22-+-λ-+-Logo_vertical</title>
    <desc>Created with Sketch.</desc>
    <defs></defs>
    <g id="Page-1" stroke="none" stroke-width="1" fill="none" fill-rule="evenodd" sketch:type="MSPage">
        <g id="webinerds" sketch:type="MSLayerGroup" transform="translate(0.000000, -1.000000)">
            <g id="Page-1" sketch:type="MSShapeGroup">
                <g id="Polygon-22-+-λ-+-Logo_vertical">
                    <g id="Polygon-22-+-λ" fill="#000000">
                        <path d="M114.367884,0.99854897 L228.471106,68.6036262 L228.471106,203.813781 L114.367884,271.418858 L0.2646627,203.813781 L0.2646627,68.6036262 L114.367884,0.99854897 Z" id="Polygon-22"></path>
                    </g>
                    <g id="Logo_vertical" transform="translate(25.000000, 73.000000)">
                        <g id="Group" transform="translate(9.000000, 106.000000)">
                            <path d="M16.961,0.491 C17.833,0.491 18.367,1.054 18.592,1.786 L21.939,12.669 L25.567,1.786 C25.82,1.054 26.467,0.491 27.198,0.491 L30.208,0.491 C30.826,0.491 31.333,1.026 31.107,1.645 L24.976,18.77 C24.666,19.643 23.993,20.176 23.008,20.176 L21.011,20.176 C20.027,20.176 19.323,19.643 19.042,18.77 L15.695,8.198 L12.349,18.77 C12.068,19.643 11.365,20.176 10.38,20.176 L8.383,20.176 C7.399,20.176 6.724,19.643 6.415,18.77 L0.284,1.645 C0.058,1.026 0.565,0.491 1.183,0.491 L4.192,0.491 C4.923,0.491 5.571,1.054 5.823,1.786 L9.452,12.669 L12.798,1.786 C13.023,1.054 13.558,0.491 14.429,0.491 L16.961,0.491 L16.961,0.491 Z" id="Shape" fill="#FFFFFF"></path>
                            <path d="M35.713,14.103 C35.91,16.353 36.922,17.337 39.229,17.337 C40.411,17.337 41.451,16.999 41.928,16.409 C42.294,15.96 42.801,15.679 43.503,15.679 L45.557,15.679 C46.035,15.679 46.401,16.044 46.401,16.523 C46.401,19.447 43.391,20.459 38.891,20.459 C33.885,20.459 30.877,17.76 30.877,12.67 C30.877,7.607 33.914,4.852 38.891,4.852 C43.897,4.852 46.907,7.524 46.907,12.473 L46.907,13.26 C46.907,13.739 46.542,14.104 46.063,14.104 L35.713,14.104 L35.713,14.103 L35.713,14.103 Z M35.686,11.206 L42.069,11.206 C41.985,9.097 40.973,7.972 38.891,7.972 C36.866,7.972 35.798,9.097 35.686,11.206 L35.686,11.206 L35.686,11.206 Z" id="Shape" fill="#FFFFFF"></path>
                            <path d="M49.434,1.335 C49.434,0.858 49.799,0.491 50.278,0.491 L53.343,0.491 C53.821,0.491 54.187,0.858 54.187,1.335 L54.187,5.554 C55.34,5.189 56.465,4.851 58.153,4.851 C62.54,4.851 65.52,7.496 65.52,12.669 C65.52,17.815 62.567,20.458 56.802,20.458 C54.131,20.458 50.897,19.755 49.434,18.911 L49.434,1.335 L49.434,1.335 Z M54.187,16.831 C54.834,16.999 55.93,17.14 57.083,17.14 C59.698,17.14 60.627,15.763 60.627,12.669 C60.627,9.548 59.698,8.169 57.168,8.169 C56.465,8.169 55.34,8.366 54.187,8.732 L54.187,16.831 L54.187,16.831 Z" id="Shape" fill="#FFFFFF"></path>
                            <path d="M68.047,1.786 C68.047,0.802 68.638,0.21 69.622,0.21 L71.338,0.21 C72.322,0.21 72.912,0.802 72.912,1.786 L72.912,2.265 C72.912,3.249 72.322,3.839 71.338,3.839 L69.622,3.839 C68.638,3.839 68.047,3.249 68.047,2.265 L68.047,1.786 L68.047,1.786 Z M68.947,20.177 C68.468,20.177 68.103,19.812 68.103,19.333 L68.103,6.313 C68.103,5.834 68.468,5.469 68.947,5.469 L72.011,5.469 C72.49,5.469 72.855,5.834 72.855,6.313 L72.855,19.333 C72.855,19.812 72.49,20.177 72.011,20.177 L68.947,20.177 L68.947,20.177 Z" id="Shape" fill="#FFFFFF"></path>
                            <path d="M77.861,20.177 C77.157,20.177 76.567,19.587 76.567,18.884 L76.567,1.786 C76.567,1.083 77.13,0.491 77.832,0.491 L81.881,0.491 C82.557,0.491 83.344,1.139 83.766,1.786 L92.063,14.554 L92.063,1.757 C92.063,1.054 92.653,0.491 93.356,0.491 L95.719,0.491 C96.449,0.491 97.012,1.054 97.012,1.786 L97.012,18.884 C97.012,19.587 96.449,20.177 95.719,20.177 L91.162,20.177 C90.432,20.177 89.615,19.587 89.166,18.884 L81.572,7.101 L81.572,18.884 C81.572,19.587 80.982,20.177 80.279,20.177 L77.861,20.177 L77.861,20.177 Z" id="Shape" fill="#4DBA72"></path>
                            <path d="M104.656,14.103 C104.853,16.353 105.865,17.337 108.172,17.337 C109.352,17.337 110.393,16.999 110.871,16.409 C111.236,15.96 111.744,15.679 112.445,15.679 L114.498,15.679 C114.977,15.679 115.344,16.044 115.344,16.523 C115.344,19.447 112.334,20.459 107.834,20.459 C102.828,20.459 99.818,17.76 99.818,12.67 C99.818,7.607 102.855,4.852 107.834,4.852 C112.84,4.852 115.848,7.524 115.848,12.473 L115.848,13.26 C115.848,13.739 115.485,14.104 115.006,14.104 L104.656,14.104 L104.656,14.103 L104.656,14.103 Z M104.627,11.206 L111.012,11.206 C110.928,9.097 109.914,7.972 107.834,7.972 C105.809,7.972 104.74,9.097 104.627,11.206 L104.627,11.206 L104.627,11.206 Z" id="Shape" fill="#4DBA72"></path>
                            <path d="M130.076,7.776 C130.076,8.253 129.709,8.62 129.23,8.62 L128.781,8.62 C128.135,8.62 127.402,8.534 126.672,8.534 C125.266,8.534 124.141,9.35 123.129,10.559 L123.129,19.332 C123.129,19.811 122.764,20.176 122.285,20.176 L119.219,20.176 C118.742,20.176 118.377,19.811 118.377,19.332 L118.377,5.975 C118.377,5.496 118.742,5.131 119.219,5.131 L122.285,5.131 C122.764,5.131 123.129,5.496 123.129,5.975 L123.129,6.848 C124.703,5.694 126.139,4.85 129.231,4.85 C129.71,4.85 130.077,5.215 130.077,5.694 L130.077,7.776 L130.076,7.776 L130.076,7.776 Z" id="Shape" fill="#4DBA72"></path>
                            <path d="M131.197,12.669 C131.197,7.495 134.177,4.851 138.564,4.851 C140.252,4.851 141.377,5.189 142.531,5.554 L142.531,1.335 C142.531,0.858 142.896,0.491 143.373,0.491 L146.439,0.491 C146.918,0.491 147.283,0.858 147.283,1.335 L147.283,19.333 C147.283,19.812 146.918,20.177 146.439,20.177 L143.796,20.177 C143.317,20.177 142.95,19.812 142.95,19.333 L142.95,18.911 C141.684,19.811 140.139,20.458 138.141,20.458 C134.15,20.458 131.197,17.815 131.197,12.669 L131.197,12.669 L131.197,12.669 Z M142.531,15.903 L142.531,8.731 C141.377,8.366 140.252,8.168 139.549,8.168 C137.02,8.168 136.09,9.547 136.09,12.668 C136.09,15.762 137.02,17.139 139.268,17.139 C140.281,17.14 141.547,16.522 142.531,15.903 L142.531,15.903 L142.531,15.903 Z" id="Shape" fill="#4DBA72"></path>
                            <path d="M157.375,20.458 C152.764,20.458 149.838,19.446 149.838,16.522 C149.838,16.043 150.205,15.678 150.682,15.678 L152.737,15.678 C153.438,15.678 153.944,15.959 154.311,16.408 C154.79,16.998 155.829,17.336 157.038,17.336 C159.401,17.336 160.188,16.803 160.188,16.014 C160.188,13.68 149.811,14.975 149.811,9.293 C149.811,6.115 152.989,4.85 156.954,4.85 C161.565,4.85 164.491,5.864 164.491,8.788 C164.491,9.267 164.126,9.632 163.647,9.632 L161.594,9.632 C160.891,9.632 160.385,9.351 160.02,8.902 C159.541,8.31 158.5,7.972 157.291,7.972 C155.352,7.972 154.562,8.507 154.562,9.294 C154.562,11.628 164.939,10.278 164.939,16.015 C164.939,19.192 161.762,20.458 157.375,20.458 L157.375,20.458 L157.375,20.458 Z" id="Shape" fill="#4DBA72"></path>
                        </g>
                        <path d="M44.022,84.923 C27.55,84.923 14.15,71.522 14.15,55.048 C14.15,50.339 15.217,45.828 17.32,41.641 C22.426,31.485 32.658,25.177 44.022,25.177 C55.214,25.177 65.377,31.349 70.543,41.285 C72.737,45.512 73.897,50.271 73.897,55.048 C73.897,71.521 60.496,84.923 44.022,84.923 L44.022,84.923 L44.022,84.923 Z M44.022,30.177 C34.56,30.177 26.04,35.43 21.788,43.886 C20.038,47.37 19.15,51.126 19.15,55.048 C19.15,68.764 30.308,79.923 44.022,79.923 C57.738,79.923 68.897,68.764 68.897,55.048 C68.897,51.013 67.958,47.158 66.106,43.59 C61.805,35.317 53.342,30.177 44.022,30.177 L44.022,30.177 L44.022,30.177 Z" id="Shape" fill="#FFFFFF"></path>
                        <path d="M123.357,84.923 C100.023,84.923 81.04,65.938 81.04,42.603 C81.04,19.27 100.023,0.286 123.357,0.286 C146.693,0.286 165.677,19.269 165.677,42.603 C165.678,65.938 146.693,84.923 123.357,84.923 L123.357,84.923 L123.357,84.923 Z M123.357,5.286 C102.781,5.286 86.04,22.026 86.04,42.603 C86.04,63.182 102.781,79.923 123.357,79.923 C143.935,79.923 160.677,63.181 160.677,42.603 C160.678,22.026 143.936,5.286 123.357,5.286 L123.357,5.286 L123.357,5.286 Z" id="Shape" fill="#FFFFFF"></path>
                        <path d="M123.357,91.423 C104.314,91.423 87.398,79.844 79.408,63.489 C75.592,79.489 61.174,91.423 44.022,91.423 C23.966,91.423 7.65,75.106 7.65,55.048 C7.65,52.795 7.593,50.5 7.538,48.28 C7.489,46.297 7.443,44.424 7.443,42.762 L7.444,42.37 C7.445,42.021 7.448,41.49 7.423,41.041 C7.027,40.971 6.432,40.906 5.588,40.906 L0.232,40.906 L0.232,22.906 L5.588,22.906 C11.952,22.906 16.969,24.703 20.498,28.248 C25.483,33.253 25.456,39.695 25.444,42.445 L25.443,42.761 C25.443,44.246 25.487,45.979 25.533,47.833 C25.588,50.054 25.65,52.57 25.65,55.046 C25.65,65.178 33.892,73.421 44.022,73.421 C54.154,73.421 62.397,65.178 62.397,55.046 C62.397,52.806 62.374,51.475 62.351,50.166 C62.328,48.816 62.305,47.489 62.305,45.33 C62.305,41.905 62.305,31.483 72.907,28.182 C77.735,26.678 82.698,27.429 86.522,30.243 C90.347,33.057 92.538,37.561 92.538,42.601 C92.538,59.019 106.938,73.421 123.356,73.421 C140.309,73.421 154.11,59.658 154.176,42.718 C154.125,40.523 154.317,31.668 160.272,25.499 C163.711,21.935 168.317,20.05 173.585,20.05 L179.23,20.05 L179.23,38.05 L173.585,38.05 C173.374,38.05 173.235,38.066 173.151,38.08 C172.643,38.728 172.151,40.85 172.172,42.375 L172.188,42.63 L172.176,42.601 C172.178,69.521 150.277,91.423 123.357,91.423 L123.357,91.423 L123.357,91.423 Z" id="Shape" fill="#4DBA72"></path>
                        <path d="M141.24,61.146 C141.24,64.691 138.369,67.562 134.822,67.562 C131.281,67.562 128.406,64.691 128.406,61.146 C128.406,57.601 131.281,54.728 134.822,54.728 C138.369,54.728 141.24,57.601 141.24,61.146 L141.24,61.146 L141.24,61.146 Z" id="Shape" fill="#FFFFFF"></path>
                        <circle id="Oval" fill="#FFFFFF" cx="51.083" cy="61.923" r="6.417"></circle>
                    </g>
                </g>
            </g>
        </g>
    </g>
</svg>