<?xml version="1.0" encoding="UTF-8" standalone="no"?>
<svg width="181px" height="25px" viewBox="0 0 181 25" version="1.1" xmlns="http://www.w3.org/2000/svg" xmlns:xlink="http://www.w3.org/1999/xlink" xmlns:sketch="http://www.bohemiancoding.com/sketch/ns">
    <!-- Generator: Sketch 3.2.2 (9983) - http://www.bohemiancoding.com/sketch -->
    <title>dataart-logo-black-Copy</title>
    <desc>Created with Sketch.</desc>
    <defs></defs>
    <g id="Page-1" stroke="none" stroke-width="1" fill="none" fill-rule="evenodd" sketch:type="MSPage">
        <g id="dataart-logo-black-Copy" sketch:type="MSLayerGroup" fill="#FFFFFF">
            <g id="Page-1" sketch:type="MSShapeGroup">
                <path d="M73.7912754,22.1981948 L82.4151195,2.29447262 L92.2063703,2.29447262 L100.261454,22.1981948 L91.89361,22.1981948 L91.2407518,20.2427179 L82.7700445,20.2427179 L82.0534759,22.1981948 L73.7912754,22.1981948 L73.7912754,22.1981948 Z M84.5852126,15.3411742 L89.5298371,15.3411742 L87.1289964,8.33271691 L84.5852126,15.3411742 L84.5852126,15.3411742 Z M59.8898909,22.1981948 L59.8898909,7.34560047 L52.6996474,7.34560047 L52.6996474,2.2960935 L74.8342731,2.2960935 L74.8342731,7.34722135 L67.6085835,7.34722135 L67.6085835,22.1998157 L59.8898909,22.1998157 L59.8898909,22.1981948 L59.8898909,22.1981948 Z M26.7525895,22.1981948 L35.3745801,2.29447262 L45.1625875,2.29447262 L53.2144277,22.1981948 L44.8614109,22.1981948 L44.1953473,20.2427179 L35.72464,20.2427179 L35.0096931,22.1981948 L26.7525895,22.1981948 L26.7525895,22.1981948 Z M37.5500018,15.3411742 L42.484201,15.3411742 L40.0954073,8.33271691 L37.5500018,15.3411742 L37.5500018,15.3411742 Z M0.193216364,2.27247495 L12.9505932,2.27247495 C17.0755541,2.27247495 20.2284096,3.11672232 22.386919,4.82675162 C24.5570122,6.52497165 25.6389311,9.00028826 25.6389311,12.2554801 C25.6389311,15.4990943 24.5553904,17.9693167 22.4019778,19.6624425 C20.2469435,21.3507057 17.1093785,22.2016681 12.9487398,22.2016681 L0.193216364,22.2016681 L0.193216364,2.27247495 L0.193216364,2.27247495 Z M7.90681209,7.20597316 L7.90681209,16.9099553 L11.74079,16.9099553 C13.7394442,16.9099553 15.1795316,16.5248803 16.0357998,15.7697814 C16.9057368,15.0132931 17.3380411,13.7756348 17.3380411,12.048702 C17.3380411,10.3386727 16.9041151,9.10101443 16.0242161,8.34452618 C15.149414,7.58780638 13.7176668,7.20435228 11.74079,7.20435228 L7.90681209,7.20435228 L7.90681209,7.20597316 L7.90681209,7.20597316 Z" id="Fill-1"></path>
                <path d="M143.905185,7.34560047 L139.608553,7.34560047 L139.608553,10.8953295 L144.100486,10.8953295 C145.271368,10.8953295 146.107481,10.7557022 146.588668,10.4783 C147.066381,10.1939512 147.308712,9.7299162 147.308712,9.07762743 C147.308712,8.43344307 147.084914,7.9828382 146.632455,7.72233949 C146.169801,7.47666026 145.263028,7.34560047 143.905185,7.34560047" id="Fill-2"></path>
                <path d="M114.978795,15.3411742 L119.914848,15.3411742 L117.517482,8.33271691 L114.978795,15.3411742" id="Fill-3"></path>
                <path d="M178.851167,7.34560047 L171.627099,7.34560047 L171.627099,22.1981948 L163.91026,22.1981948 L163.91026,7.34560047 L156.718163,7.34560047 L156.718163,2.2960935 L178.851167,2.2960935 L178.851167,7.34560047 L178.851167,7.34560047 Z M156.094033,22.1981948 L147.520694,22.1981948 C147.258207,21.7728294 147.116886,20.9589156 147.081671,19.7483492 C147.073099,19.0353932 147.039506,18.4937874 146.990623,18.1054707 C146.911622,17.3739903 146.674388,16.8661915 146.257142,16.5718858 C145.853334,16.2743384 145.162018,16.1314693 144.207983,16.1314693 L139.605078,16.1314693 L139.605078,22.1965739 L131.782132,22.1965739 L131.782132,2.2960935 L146.938496,2.2960935 C148.674664,2.2960935 150.059381,2.38362107 151.100757,2.54663537 C152.14723,2.71150211 152.947896,2.97200082 153.536812,3.32187953 C154.278633,3.75743337 154.84554,4.347434 155.239386,5.09419696 C155.631379,5.83563418 155.826449,6.67964999 155.826449,7.65657804 C155.826449,8.82870645 155.531991,9.86282843 154.950025,10.750608 C154.371303,11.648576 153.563686,12.2925288 152.544088,12.691034 C153.415646,13.0508695 154.039777,13.5065686 154.39308,14.0514161 C154.742908,14.5860752 154.950025,15.5581406 155.012114,16.9217645 C155.025551,17.0796846 155.037366,17.2866943 155.042463,17.5506663 C155.170347,20.1602845 155.522029,21.6028684 156.094033,21.8821231 L156.094033,22.1981948 L156.094033,22.1981948 Z M122.278621,22.1981948 L121.624141,20.2427179 L113.160152,20.2427179 L112.445205,22.1981948 L104.181383,22.1981948 L112.806849,2.29447262 L122.588138,2.29447262 L130.643221,22.1981948 L122.278621,22.1981948 L122.278621,22.1981948 Z M102.255243,24.6684172 L180.710122,24.6684172 L180.710122,0.142174406 L102.255243,0.142174406 L102.255243,24.6684172 Z" id="Fill-4"></path>
            </g>
        </g>
    </g>
</svg>