<?xml version="1.0" encoding="UTF-8" standalone="no"?>
<svg width="754px" height="625px" viewBox="0 0 754 625" version="1.1" xmlns="http://www.w3.org/2000/svg" xmlns:xlink="http://www.w3.org/1999/xlink" xmlns:sketch="http://www.bohemiancoding.com/sketch/ns">
    <!-- Generator: Sketch 3.2.2 (9983) - http://www.bohemiancoding.com/sketch -->
    <title>lambda-vector</title>
    <desc>Created with Sketch.</desc>
    <defs>
        <radialGradient cx="45.6168185%" cy="17.7555239%" fx="45.6168185%" fy="17.7555239%" r="88.0392975%" id="radialGradient-1">
            <stop stop-color="#FFA816" offset="0%"></stop>
            <stop stop-color="#923E04" offset="81.122449%"></stop>
            <stop stop-color="#984004" offset="100%"></stop>
        </radialGradient>
        <radialGradient cx="45.6168185%" cy="17.7555239%" fx="45.6168185%" fy="17.7555239%" r="88.0392975%" id="radialGradient-2">
            <stop stop-color="#000000" offset="0%"></stop>
            <stop stop-color="#000000" offset="100%"></stop>
            <stop stop-color="#000000" offset="100%"></stop>
        </radialGradient>
        <linearGradient x1="106.079928%" y1="-7.3849666%" x2="-22.2179727%" y2="106.887674%" id="linearGradient-3">
            <stop stop-color="#E08911" offset="0%"></stop>
            <stop stop-color="#A04C06" offset="35.2040816%"></stop>
            <stop stop-color="#9E4A06" offset="100%"></stop>
        </linearGradient>
    </defs>
    <g id="Page-1" stroke="none" stroke-width="1" fill="none" fill-rule="evenodd" sketch:type="MSPage">
        <g id="lambda-vector" sketch:type="MSLayerGroup">
            <g id="Page-1" sketch:type="MSShapeGroup">
                <g id="lambda-vector">
                    <path d="M324.097596,623.999978 C402.097596,623.999978 490.097596,584.999947 548.097596,531.999978 C606.097596,479.000008 628.097596,399.000008 648.097596,358.000008 C677.782501,297.145952 707.097596,227.999993 731.097596,169.999993 C742.44219,142.583891 768.097596,99.0000007 741.097596,53.0000007 C714.097596,7.0000007 673.517642,2.83462667 646.097596,1.78000953 C594.097596,-0.219990402 403.097596,1.78000955 304.097596,1.78000956 C155.097596,1.78000957 6.09759541,140.000007 1.09759556,302.000007 C-3.90240429,464.000007 131.097596,623.999978 324.097596,623.999978 L324.097596,623.999978 Z" id="Oval-2" stroke-opacity="0.0144927536" stroke="#000000" fill="url(#radialGradient-1)"></path>
                    <path d="M573,154 L594.5,154 L629.75,98.5 L654.25,158.5 L689,148 L683.75,130.25 L668,135.75 L630,41.25 L597.5,41.25 L597.5,59.25 L616.5,58.75 L622,74.25 L573,154 L573,154 Z" id="Path" stroke="#000000" fill="url(#radialGradient-2)"></path>
                    <path d="M319,575 C466.460028,575 586,461.280326 586,321 C586,180.719674 466.460028,67 319,67 C171.539972,67 52,180.719674 52,321 C52,461.280326 171.539972,575 319,575 Z" id="Oval-1" stroke="#000000" fill="#000000"></path>
                    <path d="M333.061043,335.789516 C290.561043,321.789516 236.061043,328.789516 236.061043,328.789516 L258.061043,128.289516 L449.561043,129.789516 L449.561043,202.289516 L321.561043,203.289516 L314.561043,263.789516 C314.561043,263.789516 376.061043,255.789516 423.561043,292.289516 C471.061043,328.789516 461.061043,402.289516 461.061043,402.289516 C461.061043,402.289516 461.061043,454.289516 409.061043,492.289516 C357.061043,530.289516 296.561043,521.789516 296.561043,521.789516 C296.561043,521.789516 266.95779,518.687506 252.561043,515.289516 C240.124457,512.354173 216.061043,502.789516 216.061043,502.789516 L231.561043,434.289516 C231.561043,434.289516 271.061043,459.289516 321.561043,449.789516 C372.061043,440.289516 372.561043,392.789516 372.561043,392.789516 C372.561043,392.789516 375.561043,349.789516 333.061043,335.789516 Z" id="Path-3" stroke="#B25D09" fill="url(#linearGradient-3)"></path>
                </g>
            </g>
        </g>
    </g>
</svg>