<?xml version="1.0" encoding="UTF-8" standalone="no"?>
<svg width="384px" height="512px" viewBox="0 0 384 512" version="1.1" xmlns="http://www.w3.org/2000/svg" xmlns:xlink="http://www.w3.org/1999/xlink" xmlns:sketch="http://www.bohemiancoding.com/sketch/ns">
    <!-- Generator: Sketch 3.2.2 (9983) - http://www.bohemiancoding.com/sketch -->
    <title>1467221450_72_Pin_alt</title>
    <desc>Created with Sketch.</desc>
    <defs></defs>
    <g id="Page-1" stroke="none" stroke-width="1" fill="none" fill-rule="evenodd" sketch:type="MSPage">
        <g id="1467221450_72_Pin_alt" sketch:type="MSLayerGroup" fill="#FFFFFF">
            <path d="M192,0 C85.969,0 0,85.969 0,192 C0,298.031 192,512 192,512 C192,512 384,298.031 384,192 C384,85.969 298.031,0 192,0 L192,0 Z M192,320 C121.312,320 64,262.688 64,192 C64,121.312 121.312,64 192,64 C262.688,64 320,121.312 320,192 C320,262.688 262.688,320 192,320 L192,320 Z M192,128 C156.655,128 128,156.656 128,192 C128,227.344 156.655,256 192,256 C227.344,256 256,227.344 256,192 C256,156.656 227.344,128 192,128 L192,128 Z" id="Shape" sketch:type="MSShapeGroup"></path>
        </g>
    </g>
</svg>