<?xml version="1.0" encoding="UTF-8" standalone="no"?>
<svg width="155px" height="25px" viewBox="0 0 155 25" version="1.1" xmlns="http://www.w3.org/2000/svg" xmlns:xlink="http://www.w3.org/1999/xlink" xmlns:sketch="http://www.bohemiancoding.com/sketch/ns">
    <!-- Generator: Sketch 3.2.2 (9983) - http://www.bohemiancoding.com/sketch -->
    <title>Softserve logo inverted CMYK</title>
    <desc>Created with Sketch.</desc>
    <defs></defs>
    <g id="Page-1" stroke="none" stroke-width="1" fill="none" fill-rule="evenodd" sketch:type="MSPage">
        <g id="Softserve-logo-inverted-CMYK" sketch:type="MSLayerGroup">
            <path d="M24.7063758,10.4440824 L129.513423,10.4440824 L129.513423,14.665891 L24.7063758,14.665891 L24.7063758,10.4440824 Z" id="Fill-1" fill-opacity="0" fill="#121A4B" sketch:type="MSShapeGroup"></path>
            <path d="M7.88994751,14.5276923 C5.71547244,13.7257692 3.837979,13.0334615 3.837979,11.4346154 C3.837979,9.58653846 5.61742782,8.92769231 7.28296588,8.92769231 C10.1649081,8.92769231 11.6949738,10.4330769 11.7100262,10.4488462 L11.8577034,10.5969231 L13.147336,8.55153846 L13.0680052,8.46769231 C12.9939633,8.38923077 11.2075984,6.54038462 7.3557874,6.54038462 C4.28914698,6.54038462 0.988582677,8.07192308 0.988582677,11.4346154 C0.988582677,14.6138462 4.02633858,15.7507692 6.70608924,16.7546154 C8.8838189,17.57 10.7641601,18.2738462 10.7641601,19.8584615 C10.7641601,21.6376923 9.01603675,22.4334615 7.28296588,22.4334615 C4.0080315,22.4334615 2.01093176,20.4230769 1.9914042,20.4030769 L1.85918635,20.2676923 L0.327900262,22.185 L0.415367454,22.2788462 C0.439370079,22.3046154 1.02275591,22.9269231 2.1598294,23.555 C3.20577428,24.1326923 4.93721785,24.8207692 7.24675853,24.8207692 C10.9366535,24.8207692 13.6143701,22.7334615 13.6143701,19.8584615 C13.6143701,16.6392308 10.5729528,15.5176923 7.88994751,14.5276923" id="Fill-3" fill="#FFFFFE" sketch:type="MSShapeGroup"></path>
            <path d="M33.2216667,15.5953846 C33.2216667,19.4303846 30.1871654,22.4334615 26.312979,22.4334615 C22.4391995,22.4334615 19.4046982,19.4303846 19.4046982,15.5953846 C19.4046982,11.8757692 22.4391995,8.96230769 26.312979,8.96230769 C30.1871654,8.96230769 33.2216667,11.8757692 33.2216667,15.5953846 L33.2216667,15.5953846 Z M26.312979,6.54038462 C20.8411942,6.54038462 16.5553018,10.5184615 16.5553018,15.5953846 C16.5553018,20.7688462 20.8411942,24.8207692 26.312979,24.8207692 C31.7847638,24.8207692 36.071063,20.7688462 36.071063,15.5953846 C36.071063,10.5184615 31.7847638,6.54038462 26.312979,6.54038462 L26.312979,6.54038462 Z" id="Fill-4" fill="#FFFFFE" sketch:type="MSShapeGroup"></path>
            <path d="M48.1407218,0.0734615385 C48.1228215,0.0703846154 47.686706,0.00346153846 46.9971391,0.00346153846 C45.0639108,0.00346153846 40.5664698,0.638846154 40.5664698,6.52538462 L40.5664698,7.18961538 L38.0946063,7.18961538 L38.0946063,9.43769231 L40.5664698,9.43769231 L40.5664698,24.425 L43.3406037,24.425 L43.3406037,9.43769231 L47.9881627,9.43769231 L47.9881627,7.18961538 L43.3406037,7.18961538 L43.3406037,6.52538462 C43.3406037,4.98038462 43.8483202,2.38769231 47.2493701,2.38769231 C47.7294226,2.38769231 48.0792913,2.45153846 48.0825459,2.45230769 L48.276601,2.48923077 L48.276601,0.0946153846 L48.1407218,0.0734615385" id="Fill-5" fill="#FFFFFE" sketch:type="MSShapeGroup"></path>
            <path d="M61.2380184,22.2973077 L61.0370472,22.3384615 C61.0341995,22.3392308 60.7148425,22.4042308 60.2274672,22.4042308 C58.7384908,22.4042308 56.2401837,21.8246154 56.2401837,17.9403846 L56.2401837,9.48730769 L60.8702493,9.48730769 L60.8702493,7.19346154 L56.2401837,7.19346154 L56.2401837,2.15615385 L53.4477428,2.15615385 L53.4477428,7.19346154 L50.9852362,7.19346154 L50.9852362,9.48730769 L53.4111286,9.48730769 L53.4111286,18.1830769 C53.4111286,23.9719231 57.5436483,24.8365385 60.0069685,24.8365385 C60.6761942,24.8365385 61.0850525,24.7676923 61.1021391,24.7642308 L61.2380184,24.7411538 L61.2380184,22.2973077" id="Fill-6" fill="#FFFFFE" sketch:type="MSShapeGroup"></path>
            <path d="M66.8810761,19.2211538 C66.8810761,19.2211538 68.9086877,21.1384615 71.9143045,21.1384615 C73.217769,21.1384615 74.3401969,20.5907692 74.3401969,19.5638462 C74.3401969,16.9619231 65.3603675,17.3042308 65.3603675,11.6903846 C65.3603675,8.43846154 68.438399,6.55538462 72.4212073,6.55538462 C76.5850525,6.55538462 78.612664,8.54076923 78.612664,8.54076923 L76.9109186,11.7588462 C76.9109186,11.7588462 75.2087664,10.2523077 72.385,10.2523077 C71.1901575,10.2523077 70.0311155,10.7319231 70.0311155,11.8273077 C70.0311155,14.2919231 79.0113517,13.9838462 79.0113517,19.5976923 C79.0113517,22.5076923 76.331601,24.8353846 71.9505118,24.8353846 C67.3517717,24.8353846 64.7810499,22.2680769 64.7810499,22.2680769 L66.8810761,19.2211538" id="Fill-7" fill="#FFFFFF" sketch:type="MSShapeGroup"></path>
            <path d="M94.9519423,13.5388462 C94.8795276,11.1769231 93.3226115,9.91038462 91.295,9.91038462 C88.9415223,9.91038462 87.3117848,11.2796154 86.8777034,13.5388462 L94.9519423,13.5388462 L94.9519423,13.5388462 Z M91.4040289,6.55538462 C96.7261024,6.55538462 99.5864829,10.2176923 99.5864829,14.8396154 C99.5864829,15.3526923 99.4778609,16.5165385 99.4778609,16.5165385 L86.7320604,16.5165385 C87.0217192,19.5638462 89.5208399,21.1384615 92.2725984,21.1384615 C95.241601,21.1384615 97.5954856,19.2211538 97.5954856,19.2211538 L99.3696457,22.3357692 C99.3696457,22.3357692 96.5446588,24.8353846 91.9467323,24.8353846 C85.8268766,24.8353846 82.0246982,20.6588462 82.0246982,15.6957692 C82.0246982,10.3207692 85.8996982,6.55538462 91.4040289,6.55538462 L91.4040289,6.55538462 Z" id="Fill-8" fill="#FFFFFF" sketch:type="MSShapeGroup"></path>
            <path d="M104.215735,6.96615385 L108.632625,6.96615385 L108.632625,9.97846154 C108.632625,10.6292308 108.56143,11.2103846 108.56143,11.2103846 L108.632625,11.2103846 C109.466207,8.71230769 111.674449,6.72692308 114.499029,6.72692308 C114.933517,6.72692308 115.331798,6.795 115.331798,6.795 L115.331798,11.0738462 C115.331798,11.0738462 114.860696,11.0057692 114.245171,11.0057692 C112.290381,11.0057692 110.082139,12.0665385 109.212756,14.6684615 C108.922283,15.5238462 108.814068,16.4826923 108.814068,17.5092308 L108.814068,24.425 L104.215735,24.425 L104.215735,6.96615385" id="Fill-9" fill="#FFFFFF" sketch:type="MSShapeGroup"></path>
            <path d="M117.334186,6.96615385 L122.186785,6.96615385 L126.024357,17.7830769 C126.386837,18.8103846 126.640289,19.9711538 126.676903,19.9711538 L126.749318,19.9711538 C126.785118,19.9711538 127.03857,18.8103846 127.400643,17.7830769 L131.238622,6.96615385 L136.090407,6.96615385 L129.464055,24.425 L124.032546,24.425 L117.334186,6.96615385" id="Fill-10" fill="#FFFFFF" sketch:type="MSShapeGroup"></path>
            <path d="M150.151063,13.5388462 C150.078648,11.1769231 148.521325,9.91038462 146.493714,9.91038462 C144.14105,9.91038462 142.511312,11.2796154 142.076417,13.5388462 L150.151063,13.5388462 L150.151063,13.5388462 Z M146.602336,6.55538462 C151.925223,6.55538462 154.78601,10.2176923 154.78601,14.8396154 C154.78601,15.3526923 154.676982,16.5165385 154.676982,16.5165385 L141.931995,16.5165385 C142.221247,19.5638462 144.719147,21.1384615 147.470906,21.1384615 C150.440315,21.1384615 152.793793,19.2211538 152.793793,19.2211538 L154.568766,22.3357692 C154.568766,22.3357692 151.744186,24.8353846 147.145039,24.8353846 C141.025997,24.8353846 137.224226,20.6588462 137.224226,15.6957692 C137.224226,10.3207692 141.099226,6.55538462 146.602336,6.55538462 L146.602336,6.55538462 Z" id="Fill-11" fill="#FFFFFF" sketch:type="MSShapeGroup"></path>
        </g>
    </g>
</svg>