<?xml version="1.0" encoding="UTF-8" standalone="no"?>
<svg width="512px" height="512px" viewBox="0 0 512 512" version="1.1" xmlns="http://www.w3.org/2000/svg" xmlns:xlink="http://www.w3.org/1999/xlink" xmlns:sketch="http://www.bohemiancoding.com/sketch/ns">
    <!-- Generator: Sketch 3.2.2 (9983) - http://www.bohemiancoding.com/sketch -->
    <title>1467220525_39_Calendar</title>
    <desc>Created with Sketch.</desc>
    <defs></defs>
    <g id="Page-1" stroke="none" stroke-width="1" fill="none" fill-rule="evenodd" sketch:type="MSPage">
        <g id="1467220525_39_Calendar" sketch:type="MSLayerGroup" fill="#FFFFFF">
            <path d="M416,0 L352,0 L352,64 L416,64 L416,0 L416,0 Z M480,0 L448,0 L448,96 L320,96 L320,0 L192,0 L192,96 L64,96 L64,0 L32,0 C14.312,0 0,14.328 0,32 L0,480 C0,497.688 14.312,512 32,512 L480,512 C497.688,512 512,497.688 512,480 L512,32 C512,14.328 497.688,0 480,0 L480,0 Z M448,448 L64,448 L64,160 L448,160 L448,448 L448,448 Z M160,0 L96,0 L96,64 L160,64 L160,0 L160,0 Z M288,224 L224,224 L224,288 L288,288 L288,224 L288,224 Z M384,224 L320,224 L320,288 L384,288 L384,224 L384,224 Z M192,320 L128,320 L128,384 L192,384 L192,320 L192,320 Z M192,224 L128,224 L128,288 L192,288 L192,224 L192,224 Z M288,320 L224,320 L224,384 L288,384 L288,320 L288,320 Z M384,320 L320,320 L320,384 L384,384 L384,320 L384,320 Z" id="Shape" sketch:type="MSShapeGroup"></path>
        </g>
    </g>
</svg>