<?xml version="1.0" encoding="UTF-8" standalone="no"?>
<svg width="171px" height="25px" viewBox="0 0 171 25" version="1.1" xmlns="http://www.w3.org/2000/svg" xmlns:xlink="http://www.w3.org/1999/xlink" xmlns:sketch="http://www.bohemiancoding.com/sketch/ns">
    <!-- Generator: Sketch 3.2.2 (9983) - http://www.bohemiancoding.com/sketch -->
    <title>cimon</title>
    <desc>Created with Sketch.</desc>
    <defs></defs>
    <g id="Page-1" stroke="none" stroke-width="1" fill="none" fill-rule="evenodd" sketch:type="MSPage">
        <g id="cimon" sketch:type="MSLayerGroup" fill="#D8D9D4">
            <g id="Page-1" sketch:type="MSShapeGroup">
                <g id="Group">
                    <path d="M12.038,24.345 C8.722,24.345 5.884,23.171 3.524,20.822 C1.174,18.461 0,15.624 0,12.308 C0,8.981 1.174,6.143 3.523,3.794 C5.883,1.434 8.721,0.253 12.037,0.253 C14.768,0.253 17.218,1.085 19.388,2.749 C19.815,3.086 20.068,3.524 20.147,4.064 C20.214,4.615 20.08,5.109 19.742,5.547 C19.404,5.985 18.967,6.238 18.427,6.306 C17.876,6.373 17.382,6.244 16.943,5.918 C15.505,4.805 13.869,4.249 12.037,4.249 C9.823,4.249 7.929,5.036 6.355,6.609 C4.781,8.183 3.995,10.082 3.995,12.308 C3.995,14.522 4.782,16.416 6.355,17.99 C7.928,19.564 9.822,20.35 12.037,20.35 C14.127,20.35 15.937,19.653 17.466,18.259 C17.87,17.888 18.348,17.714 18.899,17.737 C19.449,17.759 19.91,17.979 20.281,18.395 C20.652,18.799 20.826,19.277 20.803,19.828 C20.781,20.379 20.567,20.84 20.162,21.211 C17.859,23.3 15.15,24.345 12.038,24.345 L12.038,24.345 L12.038,24.345 Z" id="Shape"></path>
                    <path d="M28.458,24.345 C27.907,24.345 27.44,24.149 27.059,23.755 C26.665,23.373 26.469,22.906 26.469,22.356 L26.469,2.243 C26.469,1.692 26.665,1.226 27.059,0.844 C27.441,0.45 27.908,0.254 28.458,0.254 C29.008,0.254 29.475,0.451 29.857,0.844 C30.25,1.226 30.447,1.693 30.447,2.243 L30.447,22.356 C30.447,22.907 30.25,23.373 29.857,23.755 C29.476,24.149 29.009,24.345 28.458,24.345 L28.458,24.345 L28.458,24.345 Z" id="Shape"></path>
                    <path d="M60.272,0.169 C60.699,0.293 61.047,0.534 61.317,0.894 C61.587,1.243 61.722,1.642 61.722,2.091 L61.722,22.356 C61.722,22.907 61.531,23.373 61.149,23.755 C60.755,24.149 60.283,24.345 59.733,24.345 C59.182,24.345 58.71,24.149 58.316,23.755 C57.934,23.373 57.743,22.906 57.743,22.356 L57.743,9.239 L51.454,19.624 L51.454,19.641 L51.437,19.658 L51.42,19.675 L51.403,19.692 C51.369,19.749 51.347,19.788 51.336,19.81 L51.285,19.877 C51.24,19.922 51.212,19.95 51.201,19.961 C51.189,19.972 51.167,19.995 51.134,20.028 C51.1,20.062 51.077,20.084 51.066,20.095 C51.044,20.117 51.01,20.146 50.965,20.179 L50.915,20.229 C50.881,20.252 50.842,20.274 50.797,20.296 C50.797,20.307 50.791,20.313 50.78,20.313 L50.763,20.33 L50.746,20.33 C50.724,20.353 50.684,20.375 50.628,20.397 C50.583,20.42 50.566,20.431 50.577,20.431 C50.566,20.431 50.532,20.443 50.476,20.465 C50.217,20.577 49.948,20.628 49.667,20.616 L49.633,20.616 C49.655,20.616 49.633,20.611 49.565,20.599 C49.419,20.588 49.273,20.559 49.127,20.515 C49.07,20.504 49.048,20.498 49.06,20.498 C49.082,20.509 49.06,20.503 48.992,20.481 C48.936,20.459 48.897,20.442 48.874,20.43 C48.885,20.43 48.874,20.419 48.84,20.396 C48.783,20.374 48.739,20.352 48.705,20.329 L48.69,20.329 L48.673,20.312 L48.656,20.295 C48.611,20.273 48.572,20.245 48.538,20.211 C48.538,20.222 48.521,20.211 48.488,20.177 C48.443,20.143 48.409,20.115 48.386,20.093 C48.375,20.082 48.352,20.059 48.319,20.026 C48.286,19.993 48.263,19.97 48.252,19.959 C48.241,19.937 48.212,19.908 48.168,19.875 C48.145,19.841 48.134,19.819 48.134,19.808 C48.111,19.786 48.083,19.746 48.05,19.69 L48.033,19.673 C48.033,19.662 48.027,19.656 48.016,19.656 L48.016,19.639 C48.016,19.628 48.01,19.622 47.999,19.622 L41.727,9.239 L41.727,22.356 C41.727,22.907 41.53,23.373 41.137,23.755 C40.743,24.149 40.272,24.345 39.721,24.345 C39.17,24.345 38.703,24.149 38.322,23.755 C37.928,23.373 37.732,22.906 37.732,22.356 L37.732,2.091 C37.732,1.642 37.867,1.242 38.136,0.894 C38.406,0.535 38.76,0.293 39.198,0.169 C39.625,0.057 40.046,0.079 40.462,0.236 C40.878,0.404 41.204,0.68 41.44,1.062 L49.735,14.769 L58.03,1.062 C58.255,0.68 58.575,0.404 58.991,0.236 C59.407,0.079 59.615,0 59.615,0 C59.615,0 59.834,0.057 60.272,0.169 L60.272,0.169 L60.272,0.169 Z" id="Shape"></path>
                    <path d="M79.593,24.345 C76.255,24.345 73.405,23.159 71.046,20.788 C68.674,18.428 67.488,15.578 67.488,12.24 C67.488,8.902 68.674,6.047 71.046,3.676 C73.406,1.316 76.255,0.135 79.593,0.135 C82.931,0.135 85.786,1.315 88.158,3.676 C90.518,6.048 91.698,8.902 91.698,12.24 C91.698,15.578 90.518,18.428 88.158,20.788 C85.786,23.16 82.931,24.345 79.593,24.345 L79.593,24.345 L79.593,24.345 Z M79.593,4.114 C77.356,4.114 75.446,4.906 73.861,6.491 C72.265,8.087 71.467,10.003 71.467,12.24 C71.467,14.477 72.265,16.387 73.861,17.972 C75.445,19.568 77.356,20.366 79.593,20.366 C81.83,20.366 83.746,19.568 85.342,17.972 C86.927,16.388 87.719,14.477 87.719,12.24 C87.719,10.003 86.927,8.087 85.342,6.491 C83.746,4.906 81.83,4.114 79.593,4.114 L79.593,4.114 L79.593,4.114 Z" id="Shape"></path>
                    <path d="M113.784,23.586 L113.767,23.586 L113.767,23.57 L101.645,7.975 L101.645,22.356 C101.645,22.907 101.448,23.373 101.055,23.755 C100.673,24.149 100.206,24.345 99.656,24.345 C99.106,24.345 98.638,24.149 98.257,23.755 C97.863,23.373 97.667,22.906 97.667,22.356 L97.667,2.158 C97.667,1.731 97.791,1.349 98.038,1.012 C98.285,0.664 98.611,0.422 99.016,0.287 C99.409,0.141 99.814,0.13 100.23,0.253 C100.635,0.377 100.966,0.607 101.225,0.944 L113.347,16.556 L113.347,2.158 C113.347,1.607 113.538,1.141 113.92,0.759 C114.313,0.366 114.785,0.169 115.336,0.169 C115.887,0.169 116.353,0.366 116.735,0.759 C117.128,1.141 117.325,1.608 117.325,2.158 L117.325,22.39 C117.325,22.412 117.32,22.446 117.308,22.491 L117.308,22.575 C117.308,22.597 117.302,22.631 117.291,22.676 C117.291,22.721 117.286,22.755 117.274,22.777 L117.257,22.861 C117.246,22.917 117.235,22.951 117.223,22.962 C117.223,22.973 117.212,23.002 117.189,23.046 C117.178,23.091 117.167,23.125 117.155,23.148 L117.121,23.232 L117.071,23.316 C117.059,23.338 117.043,23.372 117.02,23.417 L116.969,23.468 C116.958,23.49 116.935,23.524 116.902,23.569 L116.852,23.636 C116.84,23.647 116.818,23.67 116.785,23.703 C116.751,23.748 116.728,23.77 116.717,23.77 C116.717,23.781 116.695,23.804 116.65,23.837 C116.616,23.871 116.588,23.894 116.566,23.904 C116.6,23.882 116.594,23.887 116.549,23.921 L116.532,23.938 C116.442,24.005 116.357,24.062 116.279,24.107 L116.262,24.107 C116.172,24.152 116.082,24.191 115.992,24.225 C115.947,24.248 115.935,24.253 115.958,24.242 C115.868,24.276 115.772,24.298 115.671,24.309 L115.62,24.326 C115.519,24.338 115.423,24.343 115.333,24.343 C115.266,24.343 115.192,24.338 115.114,24.326 C115.136,24.338 115.125,24.338 115.08,24.326 C115.013,24.315 114.956,24.304 114.912,24.292 C114.923,24.304 114.901,24.298 114.845,24.275 C114.788,24.264 114.744,24.253 114.71,24.241 C114.698,24.241 114.676,24.23 114.642,24.207 C114.586,24.196 114.541,24.179 114.507,24.156 C114.485,24.156 114.462,24.145 114.44,24.122 C114.395,24.1 114.356,24.083 114.322,24.072 C114.288,24.05 114.266,24.032 114.255,24.021 C114.221,23.999 114.182,23.97 114.137,23.937 C114.103,23.915 114.08,23.898 114.07,23.887 C114.013,23.842 113.963,23.797 113.918,23.752 L113.901,23.735 L113.901,23.718 C113.856,23.674 113.834,23.651 113.834,23.651 C113.834,23.651 113.818,23.631 113.784,23.586 L113.784,23.586 L113.784,23.586 Z" id="Shape"></path>
                    <path d="M127.221,20.265 C127.772,20.265 128.239,20.456 128.62,20.838 C129.014,21.22 129.21,21.687 129.21,22.237 C129.21,22.787 129.013,23.255 128.62,23.636 C128.238,24.018 127.771,24.209 127.221,24.209 C126.682,24.209 126.215,24.018 125.822,23.636 C125.44,23.254 125.249,22.787 125.249,22.237 C125.249,21.687 125.44,21.22 125.822,20.838 C126.215,20.457 126.682,20.265 127.221,20.265 L127.221,20.265 L127.221,20.265 Z" id="Shape"></path>
                    <path d="M138.955,24.345 C138.404,24.345 137.937,24.149 137.556,23.755 C137.162,23.373 136.966,22.906 136.966,22.356 L136.966,2.243 C136.966,1.692 137.162,1.226 137.556,0.844 C137.938,0.45 138.405,0.254 138.955,0.254 C139.505,0.254 139.972,0.451 140.354,0.844 C140.747,1.226 140.944,1.693 140.944,2.243 L140.944,22.356 C140.944,22.907 140.747,23.373 140.354,23.755 C139.972,24.149 139.506,24.345 138.955,24.345 L138.955,24.345 L138.955,24.345 Z" id="Shape"></path>
                    <path d="M158.782,24.345 C155.444,24.345 152.594,23.159 150.235,20.788 C147.863,18.428 146.677,15.578 146.677,12.24 C146.677,8.902 147.863,6.047 150.235,3.676 C152.595,1.316 155.444,0.135 158.782,0.135 C162.12,0.135 164.975,1.315 167.347,3.676 C169.707,6.048 170.887,8.902 170.887,12.24 C170.887,15.578 169.707,18.428 167.347,20.788 C164.975,23.16 162.12,24.345 158.782,24.345 L158.782,24.345 L158.782,24.345 Z M158.782,4.114 C156.545,4.114 154.635,4.906 153.05,6.491 C151.454,8.087 150.656,10.003 150.656,12.24 C150.656,14.477 151.454,16.387 153.05,17.972 C154.634,19.568 156.545,20.366 158.782,20.366 C161.019,20.366 162.935,19.568 164.531,17.972 C166.116,16.388 166.908,14.477 166.908,12.24 C166.908,10.003 166.116,8.087 164.531,6.491 C162.935,4.906 161.019,4.114 158.782,4.114 L158.782,4.114 L158.782,4.114 Z" id="Shape"></path>
                </g>
            </g>
        </g>
    </g>
</svg>