<?xml version="1.0" encoding="UTF-8" standalone="no"?>
<svg width="754px" height="625px" viewBox="0 0 754 625" version="1.1" xmlns="http://www.w3.org/2000/svg" xmlns:xlink="http://www.w3.org/1999/xlink" xmlns:sketch="http://www.bohemiancoding.com/sketch/ns">
    <!-- Generator: Sketch 3.2.2 (9983) - http://www.bohemiancoding.com/sketch -->
    <title>lambda-vector</title>
    <desc>Created with Sketch.</desc>
    <defs>
        <radialGradient cx="45.6168185%" cy="17.7555239%" fx="45.6168185%" fy="17.7555239%" r="88.0392975%" id="radialGradient-1">
            <stop stop-color="#FFA816" offset="0%"></stop>
            <stop stop-color="#923E04" offset="81.122449%"></stop>
            <stop stop-color="#984004" offset="100%"></stop>
        </radialGradient>
        <radialGradient cx="45.6168185%" cy="17.7555239%" fx="45.6168185%" fy="17.7555239%" r="88.0392975%" id="radialGradient-2">
            <stop stop-color="#000000" offset="0%"></stop>
            <stop stop-color="#000000" offset="100%"></stop>
            <stop stop-color="#000000" offset="100%"></stop>
        </radialGradient>
        <linearGradient x1="106.079928%" y1="-7.3849666%" x2="-22.2179727%" y2="106.887674%" id="linearGradient-3">
            <stop stop-color="#E08911" offset="0%"></stop>
            <stop stop-color="#A04C06" offset="35.2040816%"></stop>
            <stop stop-color="#9E4A06" offset="100%"></stop>
        </linearGradient>
    </defs>
    <g id="Page-1" stroke="none" stroke-width="1" fill="none" fill-rule="evenodd" sketch:type="MSPage">
        <g id="lambda-vector" sketch:type="MSLayerGroup">
            <g id="Page-1" sketch:type="MSShapeGroup">
                <g id="lambda-vector">
                    <path d="M324.097596,623.999978 C402.097596,623.999978 490.097596,584.999947 548.097596,531.999978 C606.097596,479.000008 628.097596,399.000008 648.097596,358.000008 C677.782501,297.145952 707.097596,227.999993 731.097596,169.999993 C742.44219,142.583891 768.097596,99.0000007 741.097596,53.0000007 C714.097596,7.0000007 673.517642,2.83462667 646.097596,1.78000953 C594.097596,-0.219990402 403.097596,1.78000955 304.097596,1.78000956 C155.097596,1.78000957 6.09759541,140.000007 1.09759556,302.000007 C-3.90240429,464.000007 131.097596,623.999978 324.097596,623.999978 L324.097596,623.999978 Z" id="Oval-2" stroke-opacity="0.0144927536" stroke="#000000" fill="url(#radialGradient-1)"></path>
                    <path d="M573,154 L594.5,154 L629.75,98.5 L654.25,158.5 L689,148 L683.75,130.25 L668,135.75 L630,41.25 L597.5,41.25 L597.5,59.25 L616.5,58.75 L622,74.25 L573,154 L573,154 Z" id="Path" stroke="#000000" fill="url(#radialGradient-2)"></path>
                    <ellipse id="Oval-1" stroke="#000000" fill="#000000" cx="319" cy="321" rx="267" ry="254"></ellipse>
                    <path d="M213,128 L429,128 L429,187.5 L268.5,187 L264,268 C264,268 344.5,268 390.5,301 C436.5,334 436.5,389.5 436.5,389.5 C436.5,389.5 438.5,431.5 415.5,463.5 C392.5,495.5 343.5,506.5 343.5,506.5 C343.5,506.5 311,516 280,513.5 C249,511 207,502.5 207,502.5 L207,448.5 C207,448.5 256,467 280,467 C304,467 321,459 321,459 C321,459 348.5,450.5 355.5,409 C362.5,367.5 337,343 337,343 C337,343 323,325 286,318.5 C249,312 213,316.5 213,316.5 L213,128 Z" id="Path-3" stroke="#B25D09" fill="url(#linearGradient-3)"></path>
                </g>
            </g>
        </g>
    </g>
</svg>