<?xml version="1.0" encoding="UTF-8" standalone="no"?>
<svg width="754px" height="625px" viewBox="0 0 754 625" version="1.1" xmlns="http://www.w3.org/2000/svg" xmlns:xlink="http://www.w3.org/1999/xlink" xmlns:sketch="http://www.bohemiancoding.com/sketch/ns">
    <!-- Generator: Sketch 3.2.2 (9983) - http://www.bohemiancoding.com/sketch -->
    <title>lambda-vector-7</title>
    <desc>Created with Sketch.</desc>
    <defs></defs>
    <g id="Page-1" stroke="none" stroke-width="1" fill="none" fill-rule="evenodd" sketch:type="MSPage">
        <g id="lambda-vector-7" sketch:type="MSLayerGroup">
            <g id="Page-1" sketch:type="MSShapeGroup">
                <g id="lambda-vector7">
                    <g id="Page-1">
                        <g id="lambda-vector7">
                            <g id="Page-1_1_">
                                <g id="lambda-vector_1_">
                                    <g id="Page-1">
                                        <g id="lambda-vector">
                                            <path d="M548.1,532 C606.1,479 628.1,399 648.1,358 C677.8,297.1 707.1,228 731.1,170 C742.4,142.6 768.1,99 741.1,53 C714.1,7 673.5,2.8 646.1,1.8 C594.1,-0.2 403.1,1.8 304.1,1.8 C155.1,1.8 6.1,140 1.1,302 C-3.9,464 131.1,624 324.1,624 C402.1,624 490.1,585 548.1,532 L548.1,532 Z" id="Oval-2" stroke="#BF5D23" fill="#BF5D23"></path>
                                            <path d="M607.5,153 L642.8,97.5 L667.3,157.5 L702,147 L696.7,129.2 L680.9,134.7 L643,40.3 L610.5,40.3 L610.5,58.3 L629.5,57.8 L635,73.3 L586,153 L607.5,153 L607.5,153 Z" id="Path" stroke="#260000" fill="#260000"></path>
                                            <path d="M319,575 C466.5,575 586,461.3 586,321 C586,180.7 466.5,67 319,67 C171.5,67 52,180.7 52,321 C52,461.3 171.5,575 319,575 L319,575 L319,575 Z" id="Oval-1" stroke="#260000" fill="#260000"></path>
                                        </g>
                                    </g>
                                </g>
                            </g>
                        </g>
                    </g>
                </g>
            </g>
        </g>
    </g>
</svg>