<?xml version="1.0" encoding="UTF-8"?>
<svg width="106px" height="114px" viewBox="0 0 106 114" version="1.1" xmlns="http://www.w3.org/2000/svg" xmlns:xlink="http://www.w3.org/1999/xlink">
    <!-- Generator: Sketch 46.2 (44496) - http://www.bohemiancoding.com/sketch -->
    <title>Untitled 16 copy</title>
    <desc>Created with Sketch.</desc>
    <defs></defs>
    <g id="Page-1" stroke="none" stroke-width="1" fill="none" fill-rule="evenodd" fill-opacity="0">
        <g id="λ-2-+-Oval-1" transform="translate(2.000000, 1.000000)" stroke="#000000" stroke-width="2" fill="#F6FFFF">
            <path d="M84.96,34.3217666 C94.4392146,34.3217666 102.123636,26.6385774 102.123636,17.1608833 C102.123636,7.68318915 94.4392146,0 84.96,0 C75.4807854,0 67.7963636,7.68318915 67.7963636,17.1608833 C67.7963636,26.6385774 75.4807854,34.3217666 84.96,34.3217666 Z" id="Oval-1"></path>
            <path d="M82.9997585,111.545741 L61.2476989,111.545741 L47.5213991,75.3981171 C45.7712247,70.8983904 43.7460532,64.8988447 41.4458239,57.3993001 C39.4956295,63.7989115 37.5204622,69.6734666 35.5202628,75.0231418 L21.8689702,111.545741 L0.266924716,111.545741 L30.8698224,31.975971 L19.2437216,1.60296727 L40.0206889,1.60296727 L51.9468182,31.975971 L82.9997585,111.545741 Z" id="λ-2"></path>
        </g>
    </g>
</svg>